<svg width="384" height="59" viewBox="0 0 384 59" fill="none" xmlns="http://www.w3.org/2000/svg">
<path d="M41.6103 13.5072L32.6624 4.58297H13.2875L4.29419 13.5817V45.44L13.2875 54.4424H32.6624L41.6103 45.5398V13.5072ZM13.498 17.4439L17.1189 13.8248H28.851L32.47 17.4439V41.5687L28.851 45.1896H17.1189L13.498 41.5687V17.4439Z" fill="#BA0C2F"/>
<path d="M12.4415 2.21387L2.1925 12.4572L2.19255 46.3741L12.3707 56.6803H33.5668L43.8062 46.4235V12.4543L33.6336 2.21387H12.4415ZM33.2122 3.13835L42.7924 12.7435L42.82 46.026L33.1468 55.702H12.8568L3.11466 45.9548V12.8713L12.856 3.1414L33.2122 3.13835ZM17.7732 15.2131L14.9376 18.0473V40.9829L17.7108 43.7577H28.2696L31.0168 41.0061V18.0894L28.1418 15.2131H17.7732ZM117.088 15.7474C111.807 15.7474 109.472 18.8183 109.472 24.5043C109.472 30.2135 111.782 33.36 117.061 33.36C122.341 33.36 124.673 30.289 124.673 24.6031C124.673 18.8939 122.366 15.7474 117.088 15.7474ZM178.148 15.7474C174.257 15.7474 172.413 17.5508 172.413 20.5201C172.413 24.1733 175.229 24.9356 177.887 25.8227C179.571 26.3817 180.936 26.662 180.936 28.6164C180.936 30.7726 179.164 31.4318 177.175 31.4318C175.244 31.4318 174.155 31.0528 174.155 31.0528L173.836 28.7151H172.384V32.3451C172.384 32.3451 174.75 33.36 177.683 33.36C181.894 33.36 183.985 31.4811 183.985 28.2838C183.985 21.5074 175.462 24.301 175.462 20.0627C175.462 18.1083 176.972 17.6016 178.453 17.6016C179.919 17.6016 181.444 17.9297 181.444 17.9297L181.778 20.1135H183.215V16.7115C181.778 16.154 179.919 15.7474 178.148 15.7474ZM57.5242 16.0538V19.9349H58.8949L59.1998 17.8281H63.0577V31.4579L61.0017 31.7614V33.0565H68.3096V31.7614L66.2536 31.4579V17.8281H70.11L70.4164 19.9349H71.7856V16.0538H57.5242ZM244.308 16.0538V17.346L246.37 17.6495V26.1001C246.37 27.9789 246.21 30.1395 247.662 31.5857C248.78 32.7022 250.551 33.36 252.933 33.36C255.343 33.36 256.969 32.8779 257.956 31.8891C259.336 30.517 259.51 29.2465 259.51 26.3309V17.6495L261.572 17.346V16.0538H255.372V17.346L257.434 17.6495V27.6014C257.434 28.8937 257.1 29.8825 256.49 30.5155C255.807 31.2532 254.762 31.5087 253.499 31.5087C251.118 31.5087 249.564 30.3921 249.564 27.6014V17.6495L251.626 17.346V16.0538H244.308ZM18.1754 16.1409H27.7977L30.0918 18.435V40.617L27.8819 42.8269H18.0868L15.9117 40.6548V18.4045L18.1754 16.1409ZM117.089 17.6016C119.906 17.6016 121.3 19.8841 121.3 24.5813C121.3 29.2494 119.857 31.5087 117.037 31.5087C114.22 31.5087 112.823 29.2233 112.823 24.5261C112.823 19.858 114.272 17.6016 117.089 17.6016ZM157.357 19.5022C152.87 19.5022 150.896 21.9677 150.896 26.3817C150.896 30.7972 152.841 33.3092 157.342 33.3092C161.829 33.3092 163.804 30.8495 163.804 26.4326C163.804 22.0185 161.858 19.5022 157.357 19.5022ZM337.766 19.5037C334.499 19.5037 332.844 20.9484 332.844 23.3355C332.844 26.6605 335.995 27.0148 338.449 27.8526C339.291 28.1328 339.857 28.4886 339.857 29.5035C339.857 30.9497 338.608 31.4826 336.982 31.4826C335.487 31.4826 334.514 31.2052 334.514 31.2052L334.194 29.0215H332.815V32.4728C332.815 32.4728 334.906 33.3092 337.389 33.3092C340.917 33.3092 342.79 31.8369 342.79 29.248C342.79 23.97 335.763 25.9505 335.763 22.9812C335.763 21.6875 336.852 21.2548 338.1 21.2548C339.349 21.2548 340.467 21.5089 340.467 21.5089L340.786 23.5881H342.166V20.2892C340.815 19.8071 339.262 19.5037 337.766 19.5037ZM72.8078 19.7316V20.9513L74.7869 21.2548V31.5348L72.8078 31.8383V33.0565H79.7353V31.8383L77.8332 31.5348V26.8885H82.9093V31.5348L81.0028 31.8383V33.0565H87.9317V31.8383L85.9541 31.5348V21.2548L87.9317 20.9513V19.7316H81.0028V20.9513L82.9093 21.2548V25.2637H77.8332V21.2548L79.7353 20.9513V19.7316H72.8078ZM89.4055 19.7316V20.9513L91.386 21.2548V31.5348L89.4055 31.8383V33.0565H100.899V29.5296H99.6071L99.3008 31.4318H94.4308V26.8377H97.4771L97.7776 28.5394H98.9204V23.6143H97.7776L97.4771 25.3145H94.4308V21.3564H99.3008L99.6071 23.2585H100.899V19.7316H89.4055ZM126.052 19.7316V20.9513L128.028 21.2548V31.5348L126.052 31.8383V33.0565H132.98V31.8383L131.075 31.5348V26.8885H136.151V31.5348L134.247 31.8383V33.0565H141.176V31.8383L139.196 31.5348V21.2548L141.176 20.9513V19.7316H134.247V20.9513L136.151 21.2548V25.2637H131.075V21.2548L132.98 20.9513V19.7316H126.052ZM142.826 19.7316V20.9513L144.806 21.2548V31.5348L142.826 31.8383V33.0565H149.826V31.8383L147.851 31.5348V21.2548L149.826 20.9513V19.7316H142.826ZM185.181 19.7316V23.4124H186.474L186.779 21.3564H189.726V31.5319L187.737 31.8383V33.0565H194.75V31.8383L192.775 31.5319V21.3564H195.708L196.013 23.4124H197.305V19.7316H185.181ZM202.968 19.7316L198.394 31.5348L196.492 31.8383V33.0565H202.315V31.8383L200.413 31.5348L201.342 29.1231H206.424L207.353 31.5348L205.451 31.8383V33.0565H212.363V31.8383L210.46 31.5348L205.887 19.7316H202.968ZM211.549 19.7316V23.4124H212.842L213.147 21.3564H216.094V31.5319L214.105 31.8383V33.0565H221.118V31.8383L219.129 31.5319V21.3564H222.076L222.381 23.4124H223.674V19.7316H211.549ZM224.85 19.7316V20.9513L226.824 21.2548V31.5348L224.85 31.8383V33.0565H236.335V29.5296H235.043L234.738 31.4318H229.874V26.8377H232.908L233.213 28.5394H234.36V23.6143H233.213L232.908 25.3145H229.874V21.3564H234.738L235.043 23.2585H236.335V19.7316H224.85ZM262.384 19.7316V20.9513L264.358 21.2548V31.5348L262.384 31.8383V33.0565H268.337V31.8383L266.362 31.5348V23.5373L273.143 33.0565H275.524V21.2548L277.499 20.9513V19.7316H271.546V20.9513L273.52 21.2548V28.8182L267.015 19.7316H262.384ZM279.081 19.7316V20.9513L281.056 21.2548V31.5348L279.081 31.8383V33.0565H286.08V31.8383L284.105 31.5348V21.2548L286.08 20.9513V19.7316H279.081ZM287.227 19.7316V20.9513L289.129 21.2548L293.572 33.0565H296.505L300.948 21.2548L302.85 20.9513V19.7316H297.042V20.9513L298.945 21.2548L295.59 30.3921L292.222 21.2548L294.124 20.9513V19.7316H287.227ZM303.896 19.7316V20.9513L305.87 21.2548V31.5348L303.896 31.8383V33.0565H315.396V29.5296H314.103L313.798 31.4318H308.92V26.8377H311.969L312.274 28.5394H313.406V23.6143H312.274L311.969 25.3145H308.92V21.3564H313.798L314.103 23.2585H315.396V19.7316H303.896ZM317.443 19.7316V20.9513L319.432 21.2577V31.5319L317.443 31.8383V33.0565H324.369V31.8383L322.467 31.5319V27.0424H322.699C324.47 27.0424 324.979 27.9804 325.821 30.0117L327.069 33.0565H331.382V31.8383L329.48 31.5319C328.914 30.2135 327.955 27.4722 326.837 26.6373C328.231 26.2031 329.247 24.8078 329.247 23.2585C329.247 22.2697 328.87 21.4072 328.188 20.7727C327.142 19.8071 325.545 19.7316 324.166 19.7316H317.443ZM344.58 19.7316V20.9513L346.555 21.2548V31.5348L344.58 31.8383V33.0565H351.579V31.8383L349.604 31.5348V21.2548L351.579 20.9513V19.7316H344.58ZM353.031 19.7316V23.4124H354.323L354.628 21.3564H357.576V31.5319L355.587 31.8383V33.0565H362.6V31.8383L360.61 31.5319V21.3564H363.558L363.863 23.4124H365.155V19.7316H353.031ZM366.404 19.7316V20.9513L368.306 21.2548L372.241 27.2689V31.5348L370.252 31.8383V33.0565H377.265V31.8383L375.29 31.5348V27.2689L379.167 21.2548L381.069 20.9513V19.7316H375.188V20.9513L377.003 21.2548L374.288 25.5701L371.558 21.2548L373.46 20.9513V19.7316H366.404ZM157.361 21.2548C159.496 21.2548 160.614 22.8273 160.614 26.4326C160.614 30.0117 159.452 31.5595 157.318 31.5595C155.183 31.5595 154.094 29.9856 154.094 26.3817C154.094 22.804 155.227 21.2548 157.361 21.2548ZM322.467 21.2795H323.367C324.049 21.2795 325.138 21.2301 325.647 21.7615C326.068 22.2189 326.198 22.7779 326.198 23.3616C326.198 23.9453 326.097 24.4796 325.69 24.9356C325.066 25.6441 323.861 25.5425 323.004 25.5425H322.467V21.2795ZM203.883 22.2944L205.814 27.5753H201.952L203.883 22.2944ZM57.5663 42.2912V43.2408H382.056V42.2912H57.5663Z" fill="#666666"/>
</svg>
